<svg xmlns="http://www.w3.org/2000/svg" width="1600" height="1000" viewBox="0 0 1600 1000"><defs><linearGradient id="bg" x2="1" y2="1"><stop stop-color="#06111f"/><stop offset="1" stop-color="#102c47"/></linearGradient><filter id="s"><feDropShadow dx="0" dy="8" stdDeviation="12" flood-opacity=".3"/></filter><marker id="a" markerWidth="10" markerHeight="10" refX="8" refY="5" orient="auto"><path d="M0 0L10 5L0 10z" fill="#6ed7ff"/></marker><style>.T{font:700 38px Arial;fill:#fff}.S{font:400 17px Arial;fill:#a8bed3}.H{font:700 18px Arial;fill:#6ed7ff}.B{font:700 20px Arial;fill:#fff}.M{font:400 14px Arial;fill:#b9ccde}.P{fill:#11263b;stroke:#345774;stroke-width:2}.C{fill:#123d5d;stroke:#55b9ed;stroke-width:2}.G{fill:#103d36;stroke:#35c9a3;stroke-width:2}.V{fill:#2b2140;stroke:#ad8bff;stroke-width:2}.L{stroke:#6ed7ff;stroke-width:3;fill:none;marker-end:url(#a)}</style></defs><rect width="1600" height="1000" fill="url(#bg)"/><text x="60" y="62" class="T">KUBERNETES • HIGH-AVAILABILITY PLATFORM</text><text x="60" y="94" class="S">HA control plane + workload scheduling + networking + persistent storage + observability</text><g filter="url(#s)"><rect x="55" y="145" width="1490" height="535" rx="26" class="P"/></g><rect x="570" y="180" width="460" height="78" rx="18" class="C"/><text x="800" y="216" text-anchor="middle" class="B">API VIP / LOAD BALANCER</text><text x="800" y="241" text-anchor="middle" class="M">HAProxy • Kubernetes API :6443</text><path d="M800 258V285" class="L"/><text x="90" y="300" class="H">CONTROL PLANE</text><g><rect x="90" y="325" width="390" height="145" rx="20" class="P"/><rect x="605" y="325" width="390" height="145" rx="20" class="P"/><rect x="1120" y="325" width="390" height="145" rx="20" class="P"/><text x="285" y="365" text-anchor="middle" class="B">CP-01</text><text x="285" y="395" text-anchor="middle" class="M">API Server • etcd • scheduler</text><text x="285" y="422" text-anchor="middle" class="M">controller manager</text><text x="800" y="365" text-anchor="middle" class="B">CP-02</text><text x="800" y="395" text-anchor="middle" class="M">API Server • etcd • scheduler</text><text x="800" y="422" text-anchor="middle" class="M">controller manager</text><text x="1315" y="365" text-anchor="middle" class="B">CP-03</text><text x="1315" y="395" text-anchor="middle" class="M">API Server • etcd • scheduler</text><text x="1315" y="422" text-anchor="middle" class="M">controller manager</text></g><path d="M800 285L285 318M800 285V318M800 285L1315 318" class="L"/><text x="90" y="505" class="H">WORKLOAD PLANE</text><g><rect x="90" y="530" width="390" height="110" rx="20" class="G"/><rect x="605" y="530" width="390" height="110" rx="20" class="G"/><rect x="1120" y="530" width="390" height="110" rx="20" class="G"/><text x="285" y="568" text-anchor="middle" class="B">WORKER-01</text><text x="285" y="598" text-anchor="middle" class="M">kubelet • runtime • pods</text><text x="800" y="568" text-anchor="middle" class="B">WORKER-02</text><text x="800" y="598" text-anchor="middle" class="M">kubelet • runtime • pods</text><text x="1315" y="568" text-anchor="middle" class="B">WORKER-N</text><text x="1315" y="598" text-anchor="middle" class="M">kubelet • runtime • pods</text></g><path d="M285 470V520M800 470V520M1315 470V520" class="L"/><g><rect x="55" y="720" width="460" height="190" rx="24" class="P"/><text x="85" y="760" class="H">NETWORKING</text><text x="90" y="800" class="M">CNI • CoreDNS • Services</text><text x="90" y="832" class="M">Ingress • service routing • network policy</text><rect x="570" y="720" width="460" height="190" rx="24" class="P"/><text x="600" y="760" class="H">STORAGE</text><text x="605" y="800" class="M">PVC → CSI → Persistent Volume</text><text x="605" y="832" class="M">Ceph / NFS / SAN backends</text><rect x="1085" y="720" width="460" height="190" rx="24" class="P"/><text x="1115" y="760" class="H">OPERATIONS</text><text x="1120" y="800" class="M">kubectl events • describe • logs</text><text x="1120" y="832" class="M">Prometheus • Grafana • alerting</text></g><text x="60" y="965" class="S">PUBLIC PORTFOLIO EVIDENCE • LAB/REFERENCE DESIGN • NO CONFIDENTIAL PRODUCTION DATA</text></svg>